<svg xmlns:xlink="http://www.w3.org/1999/xlink" xmlns="http://www.w3.org/2000/svg" fill="none" viewBox="0 0 92 126" role="img" aria-label="Both Grammar and Vocab" class="rounded-normal border-2 border-srs-beginner" width="96"  height="131" ><g clip-path="url(#card-both_svg__a)" fill="none"><g clip-path="url(#card-both_svg__b)" fill="none"><path fill="#55386E" d="M0 0h92v126H0z"></path><g opacity="0.1" fill="none"><rect width="31.159" height="13.6" x="96.476" y="118.689" fill="#FCFCFC" rx="1.218" transform="rotate(-180 96.476 118.689)"></rect><rect width="31.159" height="13.6" x="61.967" y="118.689" fill="#FCFCFC" rx="1.218" transform="rotate(-180 61.967 118.689)"></rect><rect width="31.159" height="13.6" x="79.222" y="101.841" fill="#FCFCFC" rx="1.218" transform="rotate(-180 79.222 101.841)"></rect><rect width="31.159" height="13.6" x="10.205" y="101.841" fill="#FCFCFC" rx="1.218" transform="rotate(-180 10.205 101.841)"></rect><rect width="31.159" height="13.6" x="61.967" y="84.993" fill="#FCFCFC" rx="1.218" transform="rotate(-180 61.967 84.993)"></rect><rect width="31.159" height="13.6" x="27.458" y="84.993" fill="#FCFCFC" rx="1.218" transform="rotate(-180 27.458 84.993)"></rect><rect width="31.159" height="13.6" x="113.729" y="68.144" fill="#FCFCFC" rx="1.218" transform="rotate(-180 113.729 68.144)"></rect><rect width="31.159" height="13.6" x="79.222" y="68.144" fill="#FCFCFC" rx="1.218" transform="rotate(-180 79.222 68.144)"></rect><rect width="31.159" height="13.6" x="61.968" y="51.297" fill="#FCFCFC" rx="1.218" transform="rotate(-180 61.968 51.297)"></rect><rect width="31.159" height="13.6" x="27.459" y="51.297" fill="#FCFCFC" rx="1.218" transform="rotate(-180 27.459 51.297)"></rect><rect width="31.159" height="13.6" x="113.729" y="34.448" fill="#FCFCFC" rx="1.218" transform="rotate(-180 113.729 34.448)"></rect><rect width="31.159" height="13.6" x="10.205" y="34.448" fill="#FCFCFC" opacity="0.4" rx="1.218" transform="rotate(-180 10.205 34.448)"></rect><rect width="31.159" height="13.6" x="61.968" y="17.601" fill="#FCFCFC" rx="1.218" transform="rotate(-180 61.968 17.6)"></rect><rect width="31.159" height="13.6" x="27.459" y="17.601" fill="#FCFCFC" rx="1.218" transform="rotate(-180 27.459 17.6)"></rect></g><path fill="#F0F0F0" d="M61.538 77.858H45.354a47 47 0 0 1-.34 3.774h12.92s-.034 1.428-.136 2.074c-.578 9.044-1.292 12.92-2.686 14.484-1.156 1.258-2.38 1.632-4.08 1.836-1.394.136-3.672.136-5.95.068-.068-1.428-.816-3.502-1.768-4.862 2.312.204 4.692.204 5.746.204.748 0 1.224-.068 1.7-.442.816-.68 1.394-3.4 1.802-8.704h-8.33c-1.326 5.61-4.25 10.744-11.016 14.246-.714-1.36-2.176-3.162-3.502-4.216 9.044-4.25 9.792-11.492 10.132-18.462h-9.384v-4.726h12.75v-5.406h5.134v5.406h13.192zM61.572 36.934H48.278v2.516h11.968v18.054c0 2.176-.476 3.332-1.904 4.012-1.462.714-3.366.782-5.95.748-.204-1.224-.918-3.128-1.564-4.25 1.394.102 3.298.102 3.808.068.544 0 .748-.17.748-.646V44.04h-7.106v7.242h1.496v-5.916h4.318v11.628h-4.318v-1.462h-7.752v2.38h-4.08V45.366h4.08v5.916h1.428V44.04h-6.902v18.258h-4.794V39.45H43.45v-2.516H30.496v-4.76h31.076z"></path></g></g></svg>