<svg xmlns:xlink="http://www.w3.org/1999/xlink" xmlns="http://www.w3.org/2000/svg" fill="none" viewBox="0 0 200 300" width="200"  height="300" ><path fill="#FCFCFC" d="M0 0h200v300H0z"></path><path fill="#F4726D" d="M0 0h200v300H0z" opacity="0.25"></path><path fill="#153456" d="M200 208.06a533 533 0 0 1-7.446-2.922c-10.274-4.09-18.79-7.481-27.55-7.481-5.86 0-11.938.908-18.424 1.877-8.456 1.263-17.608 2.63-27.878 2.224-11.083-.438-22.481-7.338-33.983-14.301-3.564-2.157-7.138-4.321-10.715-6.3-3.655-2.022-7.562-4.836-11.562-7.717-8.587-6.185-17.598-12.674-25.438-12.283-4.232.211-8.33-4.621-13.702-10.954-5.74-6.769-12.935-15.252-23.302-21.126V300h200z" opacity="0.5"></path><path fill="#082630" d="M200 239.431V300H0V191.954a188 188 0 0 1 18.662 11.187c4.006 7.438 8.463 14.341 18.59 17.279 11.056 3.205 22.409-.251 33.85-3.733 4.885-1.487 9.787-2.979 14.688-3.96 18.312-3.661 38.137.081 55.354 5.858 7.48 2.508 14.689 5.395 21.895 8.282 9.384 3.758 18.763 7.515 28.73 10.429 2.681.784 5.432 1.502 8.231 2.135" opacity="0.5"></path><path fill="#082630" d="M200 284.818V300H0v-8.867C35.668 284.029 76.427 280 119.715 280c28.056 0 55.051 1.692 80.285 4.818"></path><circle cx="64.215" cy="62.5" r="42.5" fill="#FCFCFC"></circle><path fill="#082630" stroke="#082630" stroke-width="2.5px" d="M160.114 231.42h-64.8v4.86h64.8z"></path><path fill="#FCFCFC" fill-rule="evenodd" d="M147.67 231.456v-23.091h-39.797v23.091z" clip-rule="evenodd"></path><path fill="#C74A4A" fill-rule="evenodd" stroke="#082630" stroke-width="2.025px" d="M110.797 231.227v-22.68h-5.67v22.68zM150.486 231.227v-22.68h-5.67v22.68z" clip-rule="evenodd"></path><path fill="#C74A4A" stroke="#082630" stroke-width="2.025px" d="M156.154 205.96h-57.42v5.485h57.42zM164.657 225.557H90.568v5.484h74.089z"></path><path fill="#082630" d="M165.055 199.359H90.291v8.727h74.764z"></path><path fill="#C74A4A" fill-rule="evenodd" stroke="#082630" stroke-width="2.025px" d="M127.744 206.21c-52.647 0-52.68-2.49-52.68-4.254 20.855-2.127 48.297-23.292 48.297-23.292h8.767s27.442 21.165 48.296 23.292c0 1.764-.032 4.254-52.68 4.254Z" clip-rule="evenodd"></path><path fill="#082630" stroke="#082630" stroke-width="2.025px" d="M151.052 181.28H104.41v5.485h46.642z"></path><path fill="#FCFCFC" fill-rule="evenodd" d="M147.67 181.695v-23.091h-39.797v23.091z" clip-rule="evenodd"></path><path fill="#C74A4A" fill-rule="evenodd" stroke="#082630" stroke-width="2.5px" d="M110.797 181.465v-22.68h-5.67v22.68zM150.486 181.465v-22.68h-5.67v22.68z" clip-rule="evenodd"></path><path fill="#C74A4A" stroke="#082630" stroke-width="2.5px" d="M156.154 156.198h-57.42v5.485h57.42z"></path><path fill="#C74A4A" stroke="#082630" stroke-width="2.025px" d="M164.657 175.795H90.568v5.485h74.089z"></path><path fill="#082630" d="M165.055 149.598H90.291v8.727h74.764z"></path><path fill="#C74A4A" fill-rule="evenodd" stroke="#082630" stroke-width="2.5px" d="M127.744 156.448c-52.647 0-52.68-2.49-52.68-4.254 20.855-2.126 48.297-23.292 48.297-23.292h8.767s27.442 21.166 48.296 23.292c0 1.764-.032 4.254-52.68 4.254Z" clip-rule="evenodd"></path><g stroke="#082630" stroke-width="2.025px" clip-path="url(#medium-hanafuda_svg__clip1_955_35995)" fill="none"><path fill="#C74A4A" d="M127.617 129.192a4.196 4.196 0 1 0 0-8.391 4.196 4.196 0 0 0 0 8.391Z" stroke="#082630" stroke-width="2.025px"></path><path fill="#C74A4A" d="M138.039 124.998H117.33v4.195h20.709z" stroke="#082630" stroke-width="2.025px"></path><path d="M127.711 121.207V83.542M122.852 87.997h9.72M122.852 91.237h9.72" stroke="#082630" fill="none" stroke-width="2.025px"></path></g><path fill="#082630" stroke="#082630" stroke-width="2.5px" d="M165.063 277.09H90.975v5.485h74.088z"></path><path fill="#FCFCFC" stroke="#082630" stroke-width="2.5px" d="M150.376 243.843h-44.55v30.78h44.55z"></path><path fill="#C74A4A" fill-rule="evenodd" stroke="#082630" stroke-width="2.5px" d="M91.266 272.23v-21.06h-4.86v21.06zM156.067 272.23V261.7h-4.86v10.53zM169.026 272.23V261.7h-4.86v10.53z" clip-rule="evenodd"></path><path fill="#C74A4A" fill-rule="evenodd" stroke="#082630" stroke-width="2.5px" d="M169.026 272.23v-21.06h-4.86v21.06zM91.266 272.23V261.7h-4.86v10.53zM104.227 272.23V261.7h-4.86v10.53zM117.186 272.23V261.7h-4.86v10.53zM143.106 272.23V261.7h-4.86v10.53z" clip-rule="evenodd"></path><path fill="#082630" stroke="#082630" stroke-width="2.5px" d="M133.492 251.17h-10.263v18.904h10.263z"></path><path fill="#C74A4A" stroke="#082630" stroke-width="2.5px" d="M156.876 238.21h-56.7v7.29h56.7z"></path><path fill="#C74A4A" stroke="#082630" stroke-width="2.5px" d="M160.116 234.97h-64.8v5.67h64.8zM169.026 271.42h-82.62v5.67h82.62zM117.186 259.27h-30.78v5.67h30.78zM169.026 259.27h-30.78v5.67h30.78z"></path></svg>