<svg xmlns:xlink="http://www.w3.org/1999/xlink" xmlns="http://www.w3.org/2000/svg" fill="none" viewBox="0 0 92 126" role="img" aria-label="Grammar" class="rounded-normal border-2 border-srs-beginner" width="96"  height="131" ><g clip-path="url(#card-grammar_svg__a)" fill="none"><path fill="#C74A4A" d="M0 0h92v126H0z"></path><g clip-path="url(#card-grammar_svg__b)" opacity="0.1" fill="none"><rect width="31.159" height="13.6" x="-20.955" y="54.544" fill="#FCFCFC" rx="1.218"></rect><rect width="31.159" height="13.6" x="13.553" y="54.544" fill="#FCFCFC" rx="1.218"></rect><rect width="31.159" height="13.6" x="82.569" y="54.544" fill="#FCFCFC" rx="1.218"></rect><rect width="31.159" height="13.6" x="30.808" y="71.393" fill="#FCFCFC" opacity="0.4" rx="1.218"></rect><rect width="31.159" height="13.6" x="-20.955" y="88.241" fill="#FCFCFC" rx="1.218"></rect><rect width="31.159" height="13.6" x="13.553" y="88.241" fill="#FCFCFC" opacity="0.4" rx="1.218"></rect><rect width="31.159" height="13.6" x="48.062" y="88.241" fill="#FCFCFC" rx="1.218"></rect><rect width="31.159" height="13.6" x="82.569" y="88.241" fill="#FCFCFC" opacity="0.4" rx="1.218"></rect><rect width="31.159" height="13.6" x="-3.701" y="105.089" fill="#FCFCFC" opacity="0.4" rx="1.218"></rect><rect width="31.159" height="13.6" x="30.808" y="105.089" fill="#FCFCFC" rx="1.218"></rect></g><path fill="#F0F0F0" d="m40.934 71.466-2.89 4.012c-1.292-1.224-4.08-2.89-6.256-3.842l2.72-3.638c2.142.816 4.998 2.278 6.426 3.468m-2.108 8.874-2.754 4.114c-1.292-1.156-4.114-2.72-6.29-3.604l2.55-3.74c2.142.748 5.032 2.108 6.494 3.23m-2.278 5.644 3.74 3.162a141 141 0 0 1-5.406 10.608l-4.284-3.162c1.666-2.55 4.046-6.63 5.95-10.608m26.146 11.662-4.726 2.584c-.238-.782-.612-1.666-1.054-2.618-5.916.544-12.138 1.02-16.728 1.394l-.646-4.998 2.448-.102c1.02-2.38 2.074-5.372 2.754-8.024H39.54V81.19h8.398v-4.046H41.24v-4.692h6.698V67.93h5.134v4.522h7.004v4.692h-7.004v4.046h8.67v4.692H50.216l.408.102c-1.02 2.652-2.176 5.372-3.298 7.684 2.278-.136 4.726-.272 7.174-.408-.748-1.156-1.53-2.312-2.312-3.332l4.284-2.278c2.482 3.026 5.202 7.038 6.222 9.996M51.135 39.926H40.73c1.291 3.162 3.06 6.018 5.337 8.5 2.108-2.38 3.809-5.202 5.067-8.5m10.642 0h-4.794c-1.734 4.726-4.08 8.67-7.004 11.968 3.365 2.482 7.547 4.318 12.546 5.406-1.19 1.156-2.822 3.536-3.57 4.964-5.372-1.394-9.69-3.536-13.192-6.426-3.639 2.856-7.956 4.998-12.988 6.528-.578-1.258-2.142-3.638-3.128-4.828 4.861-1.224 8.976-2.992 12.342-5.44-2.822-3.366-4.998-7.446-6.8-12.172h-4.794v-4.828H43.45V29.93h5.1v5.168h13.227z"></path></g></svg>