<svg xmlns:xlink="http://www.w3.org/1999/xlink" xmlns="http://www.w3.org/2000/svg" fill="none" viewBox="0 0 200 300" width="200"  height="300" ><path fill="#FCFCFC" d="M0 0h200v300H0z"></path><path fill="#C74A4A" d="M0 0h200v300H0z" opacity="0.12"></path><path fill="#082630" d="M200 187.31V300H0v-62.451c2.012.3 4.612.856 7.654 1.505 9.552 2.04 23.453 5.008 37.108 3.911 13.443-1.079 22.759-4.773 30.397-7.802 5.954-2.361 10.89-4.318 15.966-4.318 3.396 0 6.918.524 10.677 1.083 4.901.729 10.205 1.518 16.157 1.284 6.423-.253 13.029-4.235 19.694-8.254 2.065-1.245 4.137-2.494 6.21-3.636 2.118-1.167 4.383-2.792 6.701-4.454 4.976-3.57 10.198-7.315 14.742-7.089 2.453.121 4.828-2.667 7.941-6.323 5.341-6.271 12.854-15.093 26.656-16.139z"></path><path fill="#FCFCFC" d="M0 29.417c20.724.06 53.078.68 77.715 1.152h.013c18.967.363 33.358.639 34.341.504 3.764-.467 13.61 1.322 26.121 3.594 15.02 2.729 33.882 6.155 50.675 7.215 3.277.21 7.059.196 11.135.013v54.167c-13.869.993-24.052.982-29.969.976-5.408-.005-7.252-.007-5.087.764 8.452 3.041 21.099 4.616 35.056 5.429v25.835c-52.94-4.363-122.25-7.778-144.34-7.636-23.928.151.008 3.936 30.194 8.71 15.516 2.454 32.684 5.169 45.851 7.785 4.752.947 9.324 1.814 13.719 2.61 22.91 4.145 7.28 55.875-81.605 26.986a279 279 0 0 1-8.557-1.833c-19.915-4.593-38.51-7.675-55.262-10.135v-16.539c2.61-.322 2.878-.783 0-1.4V96.376c12.616-3.88 23.409-4.19 36.226-4.416 15.063-.245 29.874.948 41.556 1.888C92.08 95 101.69 95.773 101.34 93.073c-.499-3.805-51.343-8.427-86.545-11.627C9.418 80.956 4.41 80.502 0 80.087V54.85c28.493.727 57.086 2.856 79.045 4.49 29.637 2.208 47.189 3.515 36.102-.742-8.353-3.2-36.178-8.364-64.996-13.712C32.364 41.583 14.198 38.212 0 35.189z"></path><circle cx="75" cy="97" r="89" fill="#FCFCFC"></circle><circle cx="75" cy="97" r="89" fill="#C74A4A" opacity="0.3"></circle><path fill="#C74A4A" fill-rule="evenodd" stroke="#082630" stroke-linecap="round" stroke-linejoin="round" stroke-miterlimit="1.5" stroke-width="2.5px" d="M117.337 40.252c-15.412 12.804-14.847 30.692-1.402 31.362 16.766.833 17.071-14.782 1.402-31.362M54.035 8.74c-12.517 19.345-5.752 38.783 9.233 34.9 18.685-4.845 13.657-22.086-9.233-34.9" clip-rule="evenodd"></path><path fill="#C74A4A" fill-rule="evenodd" stroke="#082630" stroke-linecap="round" stroke-linejoin="round" stroke-miterlimit="1.5" stroke-width="2.5px" d="M30.332 27.772c-2.393 19.147 9.788 31.341 19.674 22.955 12.326-10.46 2.255-21.629-19.674-22.955M9.903 205.996c13.867 18.401 34.446 18.726 35.947 3.319 1.87-19.213-16.048-20.414-35.947-3.319M158.143 52.204c-20.132-11.208-39.079-3.171-34.212 11.523 6.071 18.325 22.941 12.166 34.212-11.523" clip-rule="evenodd"></path><path fill="#C74A4A" fill-rule="evenodd" stroke="#082630" stroke-linecap="round" stroke-linejoin="round" stroke-miterlimit="1.5" stroke-width="2.5px" d="M155.598 82.98c-10.711-16.269-28.056-17.647-30.149-4.73-2.61 16.11 12.444 18.085 30.149 4.73M21.628 169.919c-3.157 22.824 11.197 37.574 23.131 27.715 14.882-12.295 3.031-25.789-23.131-27.715" clip-rule="evenodd"></path><path fill="#C74A4A" fill-rule="evenodd" stroke="#082630" stroke-linecap="round" stroke-linejoin="round" stroke-miterlimit="1.5" stroke-width="2.5px" d="M65.207 166.246c-21.562 8.123-27.67 27.777-13.31 33.557 17.909 7.206 24.108-9.65 13.31-33.557" clip-rule="evenodd"></path><path stroke="#082630" stroke-width="2.5px" d="M58 183.5c-4.5 19.5-8.5 16.5-2 34M27 207c19-.5 28 0 26.5 14.5" fill="none"></path><path fill="#C74A4A" fill-rule="evenodd" stroke="#082630" stroke-linecap="round" stroke-linejoin="round" stroke-miterlimit="1.5" stroke-width="2.5px" d="M16.852 232.309c16.268-11.697 33.44-6.651 30.706 6.53-3.41 16.437-18.6 12.805-30.706-6.53" clip-rule="evenodd"></path><path fill="#C74A4A" fill-rule="evenodd" stroke="#082630" stroke-linecap="round" stroke-linejoin="round" stroke-miterlimit="1.5" stroke-width="2.5px" d="M18.157 274.808c-5.785-22.303 6.759-38.62 19.757-30.214 16.209 10.484 6.005 25.263-19.757 30.214" clip-rule="evenodd"></path><path fill="#C74A4A" fill-rule="evenodd" stroke="#082630" stroke-linecap="round" stroke-linejoin="round" stroke-miterlimit="1.5" stroke-width="2.5px" d="M48.585 280.086c-13.052-14.459-10.025-31.593 3.005-30.37 16.247 1.526 14.373 16.592-3.005 30.37" clip-rule="evenodd"></path><path stroke="#082630" stroke-width="2.5px" d="M34.495 236.969c9.346 1.912 8.633 8.842 26.706 3.206M27.366 260.429C35.6 248.62 45.21 245.435 62.6 240.138" fill="none"></path><path stroke="#082630" stroke-width="2.5px" d="M51.349 263.561c1.372-17.208-2.054-19.393 10.353-23.401" fill="none"></path><path fill="#C74A4A" fill-rule="evenodd" stroke="#082630" stroke-linecap="round" stroke-linejoin="round" stroke-miterlimit="1.5" stroke-width="2.5px" d="M77.727 34.42c-16.069 2.93-22.821 15.864-13.539 21.716 11.576 7.297 18.038-3.672 13.539-21.716" clip-rule="evenodd"></path><path fill="#C74A4A" fill-rule="evenodd" stroke="#082630" stroke-linecap="round" stroke-linejoin="round" stroke-miterlimit="1.5" stroke-width="2.5px" d="M101.933 59.228c-9.818-16.013-26.491-17.882-28.91-5.497-3.017 15.445 11.43 17.816 28.91 5.497" clip-rule="evenodd"></path><path fill="#C74A4A" fill-rule="evenodd" stroke="#082630" stroke-linecap="round" stroke-linejoin="round" stroke-miterlimit="1.5" stroke-width="2.5px" d="M87.817 80.074c-1.102-15.841-12.871-23.757-19.525-15.418-8.296 10.4 1.607 17.822 19.525 15.418" clip-rule="evenodd"></path><path stroke="#082630" stroke-width="2.5px" d="M70.481 47.411c-4.165 6.567.306 10.069-13.226 17.488M88.284 56.5c-11.59-1.848-18.896 1.99-31.843 9.201" fill="none"></path><path stroke="#082630" stroke-width="2.5px" d="M76.554 72.347c-10.876-8.93-10.22-12.177-19.592-7.163" fill="none"></path><path fill="#FCFCFC" stroke="#082630" stroke-width="2.5px" d="M71.41 260.5c0 5.6-30.666 29.333-46 40.5h62.5c4.5-4 14.7-15.7 19.5-30.5 6-18.5 105.09-100 107.09-104.5s-8-14.5-11.5-14c-2.5 2-51.09 34-57.09 34-2.5-11.5-51.5-44.5-68.5-59 16.457-8 29-27 43.5-52-9 15-40 39-55 42-25.5-17-18-31-14-42 4-7.5 19.5-38.5 11-44 .242 19.5-12 28.5-17.5 37.5-4.56 7.463-15 28-9.5 40.5s88.5 79.5 94 88.5c-2 8-39.5 42-49 46-6.5-4-18-13-18-19.5s-6-17-14-22.5c4 4.5 5 15.5 4 29s18.5 23 18.5 30Z"></path><path fill="#C74A4A" fill-rule="evenodd" stroke="#082630" stroke-linecap="round" stroke-linejoin="round" stroke-miterlimit="1.5" stroke-width="2.5px" d="M176.365 179.306c-15.021 6.417-18.742 20.524-8.393 24.176 12.904 4.552 16.776-7.576 8.393-24.176" clip-rule="evenodd"></path><path fill="#C74A4A" fill-rule="evenodd" stroke="#082630" stroke-linecap="round" stroke-linejoin="round" stroke-miterlimit="1.5" stroke-width="2.5px" d="M205.463 198.139c-13.119-13.441-29.792-11.571-29.409 1.042.478 15.729 15.092 14.843 29.409-1.042" clip-rule="evenodd"></path><path fill="#C74A4A" fill-rule="evenodd" stroke="#082630" stroke-linecap="round" stroke-linejoin="round" stroke-miterlimit="1.5" stroke-width="2.5px" d="M196.313 221.593c-4.583-15.204-17.812-20.317-22.454-10.712-5.787 11.978 5.514 17.024 22.454 10.712" clip-rule="evenodd"></path><path stroke="#082630" stroke-width="2.5px" d="M172.177 193.58c-2.607 7.326 2.528 9.751-9.026 19.983M191.549 198.499c-11.71.765-17.985 6.126-29.014 16.025" fill="none"></path><path stroke="#082630" stroke-width="2.5px" d="M183.621 216.552c-12.583-6.3-12.662-9.611-20.691-2.646" fill="none"></path><path fill="#C74A4A" fill-rule="evenodd" stroke="#082630" stroke-linecap="round" stroke-linejoin="round" stroke-miterlimit="1.5" stroke-width="2.5px" d="M213.359 146.474c-4.304 19.569-20.458 27.275-27.221 15.636-8.434-14.515 5.3-21.95 27.221-15.636" clip-rule="evenodd"></path><path fill="#C74A4A" fill-rule="evenodd" stroke="#082630" stroke-linecap="round" stroke-linejoin="round" stroke-miterlimit="1.5" stroke-width="2.5px" d="M184.016 115.701c19.196 12.745 20.749 33.267 5.459 35.685-19.067 3.014-21.335-14.801-5.459-35.685" clip-rule="evenodd"></path><path fill="#C74A4A" fill-rule="evenodd" stroke="#082630" stroke-linecap="round" stroke-linejoin="round" stroke-miterlimit="1.5" stroke-width="2.5px" d="M157.838 132.084c19.37 2.053 28.554 16.831 18.036 24.618-13.116 9.71-21.778-2.759-18.036-24.618" clip-rule="evenodd"></path><path stroke="#082630" stroke-width="2.5px" d="M197.111 154.782c-8.234 4.815-12.329-.821-22.024 15.441M186.759 132.554c1.752 14.289-3.277 23.076-12.69 38.629" fill="none"></path><path stroke="#082630" stroke-width="2.5px" d="M166.811 146.233c10.466 13.728 14.476 13.068 7.914 24.335" fill="none"></path><path fill="#C74A4A" fill-rule="evenodd" stroke="#082630" stroke-linecap="round" stroke-linejoin="round" stroke-miterlimit="1.5" stroke-width="2.5px" d="M114.427 106.19c-18.097 2.114-26.538 16.028-16.623 23.206 12.364 8.951 20.341-2.798 16.623-23.206" clip-rule="evenodd"></path><path fill="#C74A4A" fill-rule="evenodd" stroke="#082630" stroke-linecap="round" stroke-linejoin="round" stroke-miterlimit="1.5" stroke-width="2.5px" d="M139.598 135.537c-9.784-18.527-28.21-21.799-31.789-8.185-4.461 16.976 11.451 20.649 31.789 8.185" clip-rule="evenodd"></path><path fill="#C74A4A" fill-rule="evenodd" stroke="#082630" stroke-linecap="round" stroke-linejoin="round" stroke-miterlimit="1.5" stroke-width="2.5px" d="M122.395 157.731c-.095-17.712-12.63-27.365-20.633-18.558-9.978 10.983.515 19.954 20.633 18.558" clip-rule="evenodd"></path><path stroke="#082630" stroke-width="2.5px" d="M105.432 120.135c-5.105 7.012-.379 11.23-15.973 18.522M124.602 131.524c-12.769-2.885-21.176.865-36.104 7.967" fill="none"></path><path stroke="#082630" stroke-width="2.5px" d="M110.41 148.327c-11.469-10.718-10.507-14.286-21.297-9.374M128.999 184c-19.727-14.168-63.847-48.297-82.511-71.468" fill="none"></path><path fill="#C74A4A" fill-rule="evenodd" stroke="#082630" stroke-linecap="round" stroke-linejoin="round" stroke-miterlimit="1.5" stroke-width="2.5px" d="M82.61 171.051c9.542 13.257 24.121 13.807 25.425 2.911 1.624-13.587-11.057-14.717-25.425-2.911" clip-rule="evenodd"></path><path fill="#C74A4A" fill-rule="evenodd" stroke="#082630" stroke-linecap="round" stroke-linejoin="round" stroke-miterlimit="1.5" stroke-width="2.5px" d="M94.634 138.542c-10.252 15.739-4.786 31.601 7.439 28.472 15.245-3.902 11.189-17.969-7.439-28.472" clip-rule="evenodd"></path><path fill="#C74A4A" fill-rule="evenodd" stroke="#082630" stroke-linecap="round" stroke-linejoin="round" stroke-miterlimit="1.5" stroke-width="2.5px" d="M119.519 142.35c-13.835 7.792-15.936 21.819-5.549 24.251 12.953 3.032 15.409-9.098 5.549-24.251" clip-rule="evenodd"></path><path stroke="#082630" stroke-width="2.5px" d="M97.454 172.022c7.719.945 8.964-4.596 21.471 4.444M98.023 152.042c3.304 11.261 9.906 16.213 21.975 24.814" fill="none"></path><path stroke="#082630" stroke-width="2.5px" d="M117.372 155.837c-3.399 13.655-6.614 14.456 1.936 20.77" fill="none"></path><path fill="#C74A4A" fill-rule="evenodd" stroke="#082630" stroke-linecap="round" stroke-linejoin="round" stroke-miterlimit="1.5" stroke-width="2.5px" d="M42.537 169.511c16.076 2.892 26.936-6.851 20.296-15.588-8.282-10.894-18.18-2.887-20.296 15.588" clip-rule="evenodd"></path><path fill="#C74A4A" fill-rule="evenodd" stroke="#082630" stroke-linecap="round" stroke-linejoin="round" stroke-miterlimit="1.5" stroke-width="2.5px" d="M28.57 137.788c3.578 18.44 18.536 26.038 25.146 15.288 8.242-13.405-4.455-20.693-25.146-15.288" clip-rule="evenodd"></path><path fill="#C74A4A" fill-rule="evenodd" stroke="#082630" stroke-linecap="round" stroke-linejoin="round" stroke-miterlimit="1.5" stroke-width="2.5px" d="M49.102 123.219c-4.523 15.221 3.721 26.762 12.877 21.287 11.416-6.829 4.746-17.254-12.877-21.287" clip-rule="evenodd"></path><path stroke="#082630" stroke-width="2.5px" d="M53.88 159.887c6.204-4.689 3.245-9.537 18.52-11.738M40.395 145.132c10.205 5.795 18.393 4.763 33.047 2.551" fill="none"></path><path stroke="#082630" stroke-width="2.5px" d="M56.938 134.405c7.053 12.177 5.3 14.988 15.835 13.579" fill="none"></path><path fill="#C74A4A" fill-rule="evenodd" stroke="#082630" stroke-linecap="round" stroke-linejoin="round" stroke-miterlimit="1.5" stroke-width="2.5px" d="M-.269 79.775C5.043 95.22 18.844 99.954 23.235 89.897c5.475-12.54-6.34-17.28-23.504-10.122" clip-rule="evenodd"></path><path fill="#C74A4A" fill-rule="evenodd" stroke="#082630" stroke-linecap="round" stroke-linejoin="round" stroke-miterlimit="1.5" stroke-width="2.5px" d="M20.622 52.117C6.265 64.229 6.922 80.993 19.53 81.525c15.722.662 15.897-13.977 1.092-29.408" clip-rule="evenodd"></path><path fill="#C74A4A" fill-rule="evenodd" stroke="#082630" stroke-linecap="round" stroke-linejoin="round" stroke-miterlimit="1.5" stroke-width="2.5px" d="M43.35 62.942c-15.495 3.47-21.554 16.294-12.31 21.62 11.527 6.64 17.379-4.267 12.31-21.62" clip-rule="evenodd"></path><path stroke="#082630" stroke-width="2.5px" d="M13.662 84.987c7.118 3.131 9.909-1.815 19.277 10.45M19.974 66.02c-.086 11.735 4.806 18.382 13.88 30.099" fill="none"></path><path stroke="#082630" stroke-width="2.5px" d="M37.402 75.236C30.208 87.33 26.9 87.17 33.264 95.682" fill="none"></path><path fill="#C74A4A" fill-rule="evenodd" stroke="#082630" stroke-linecap="round" stroke-linejoin="round" stroke-miterlimit="1.5" stroke-width="2.5px" d="M.512 133.023c17.424 9.893 33.958 3.042 29.833-9.771-5.146-15.979-19.86-10.746-29.833 9.771" clip-rule="evenodd"></path><path fill="#C74A4A" fill-rule="evenodd" stroke="#082630" stroke-linecap="round" stroke-linejoin="round" stroke-miterlimit="1.5" stroke-width="2.5px" d="M-2.729 90.628c-3.37 22.794 10.844 37.678 22.87 27.931 14.997-12.154 3.274-25.76-22.87-27.931" clip-rule="evenodd"></path><path fill="#C74A4A" fill-rule="evenodd" stroke="#082630" stroke-linecap="round" stroke-linejoin="round" stroke-miterlimit="1.5" stroke-width="2.5px" d="M26.96 82.131c-11.433 15.77-6.593 32.483 6.23 29.876 15.993-3.252 12.52-18.032-6.23-29.876" clip-rule="evenodd"></path><path stroke="#082630" stroke-width="2.5px" d="M17.557 126.506c9.088-2.899 7.639-9.713 26.21-6.039M7.961 103.942c9.448 10.861 19.344 13.003 37.2 16.412" fill="none"></path><path stroke="#082630" stroke-width="2.5px" d="M31.473 98.266c3.202 16.963.028 19.502 12.792 22.163M128.5 232c-9.667 10-29 30.9-29 34.5 0 4.5-12 21.5-24.5 34M89 275c-8 9.5-27.2 30.7-40 39.5M117.41 58.5c-.5 8 10 9 0 22.5" fill="none"></path><path stroke="#082630" stroke-width="2.5px" d="M141.91 57.5c-13.5 5-19 13.5-28.5 29M138.91 81.5c-17-3-24.5 4.5-31.5 15.5M42 39c6 6 16 12.5 6 26M33.5 184l20 23" fill="none"></path><path fill="#C74A4A" fill-rule="evenodd" stroke="#082630" stroke-linecap="round" stroke-linejoin="round" stroke-miterlimit="1.5" stroke-width="2.5px" d="M107.625 211.357c-6.222 19.047-23.06 25.114-28.637 12.862-6.954-15.278 7.449-21.317 28.637-12.862" clip-rule="evenodd"></path><path fill="#C74A4A" fill-rule="evenodd" stroke="#082630" stroke-linecap="round" stroke-linejoin="round" stroke-miterlimit="1.5" stroke-width="2.5px" d="M81.476 177.829c17.84 14.583 17.351 35.158 1.897 36.05-19.272 1.11-19.764-16.842-1.897-36.05" clip-rule="evenodd"></path><path fill="#C74A4A" fill-rule="evenodd" stroke="#082630" stroke-linecap="round" stroke-linejoin="round" stroke-miterlimit="1.5" stroke-width="2.5px" d="M53.802 191.538c19.072 3.961 26.746 19.576 15.51 26.284-14.014 8.363-21.398-4.903-15.51-26.284" clip-rule="evenodd"></path><path stroke="#082630" stroke-width="2.5px" d="M90.633 218.014c-8.671 3.976-12.188-2.038-23.445 13.184M82.535 194.871c.328 14.392-5.547 22.638-16.454 37.182" fill="none"></path><path stroke="#082630" stroke-width="2.5px" d="M61.331 206.505c9.054 14.698 13.11 14.438 5.464 25" fill="none"></path><path fill="#C74A4A" fill-rule="evenodd" stroke="#082630" stroke-linecap="round" stroke-linejoin="round" stroke-miterlimit="1.5" stroke-width="2.5px" d="M160.226 140.068c10.662 16.965 4.557 33.789-8.429 30.24-16.192-4.426-11.622-19.36 8.429-30.24" clip-rule="evenodd"></path><path fill="#C74A4A" fill-rule="evenodd" stroke="#082630" stroke-linecap="round" stroke-linejoin="round" stroke-miterlimit="1.5" stroke-width="2.5px" d="M117.726 138.726c22.62-4.386 38.125 9.149 28.926 21.599-11.473 15.524-25.588 4.421-28.926-21.599" clip-rule="evenodd"></path><path fill="#C74A4A" fill-rule="evenodd" stroke="#082630" stroke-linecap="round" stroke-linejoin="round" stroke-miterlimit="1.5" stroke-width="2.5px" d="M110.566 168.765c15.244-12.127 32.155-8.039 30.124 4.889-2.534 16.121-17.454 13.313-30.124-4.889" clip-rule="evenodd"></path><path stroke="#082630" stroke-width="2.5px" d="M154.476 157.388c-2.49 9.208-9.362 8.065-4.862 26.454M131.505 148.811c11.274 8.954 13.855 18.743 18.059 36.43" fill="none"></path><path stroke="#082630" stroke-width="2.5px" d="M126.887 172.553c17.09 2.44 19.484-.843 22.712 11.789" fill="none"></path></svg>