<svg xmlns:xlink="http://www.w3.org/1999/xlink" xmlns="http://www.w3.org/2000/svg" fill="none" viewBox="0 0 200 300" width="200"  height="300" ><path fill="#FCFCFC" d="M0 0h200v300H0z"></path><path fill="#9C3A52" d="M2 0h200v300H2z" opacity="0.12"></path><path fill="#082630" d="M200 187.31V300H0v-62.451c2.012.3 4.612.856 7.654 1.505 9.552 2.04 23.453 5.008 37.108 3.911 13.443-1.079 22.759-4.773 30.397-7.802 5.954-2.361 10.89-4.318 15.966-4.318 3.396 0 6.918.524 10.677 1.083 4.901.729 10.205 1.518 16.157 1.284 6.423-.253 13.029-4.235 19.694-8.254 2.065-1.245 4.137-2.494 6.21-3.636 2.118-1.167 4.383-2.792 6.701-4.454 4.976-3.57 10.198-7.315 14.742-7.089 2.453.121 4.828-2.667 7.941-6.323 5.341-6.271 12.854-15.093 26.656-16.139z"></path><path fill="#FCFCFC" d="M0 29.417c20.724.06 53.078.68 77.715 1.152h.013c18.967.363 33.358.639 34.341.504 3.764-.467 13.61 1.322 26.121 3.594 15.02 2.729 33.882 6.155 50.675 7.215 3.277.21 7.059.196 11.135.013v54.167c-13.869.993-24.052.982-29.969.976-5.408-.005-7.252-.007-5.087.764 8.452 3.041 21.099 4.616 35.056 5.429v25.835c-52.94-4.363-122.25-7.778-144.34-7.636-23.928.151.008 3.936 30.194 8.71 15.516 2.454 32.684 5.169 45.851 7.785 4.752.947 9.324 1.814 13.719 2.61 22.91 4.145 7.28 55.875-81.605 26.986a279 279 0 0 1-8.557-1.833c-19.915-4.593-38.51-7.675-55.262-10.135v-16.539c2.61-.322 2.878-.783 0-1.4V96.376c12.616-3.88 23.409-4.19 36.226-4.416 15.063-.245 29.874.948 41.556 1.888C92.08 95 101.69 95.773 101.34 93.073c-.499-3.805-51.343-8.427-86.545-11.627C9.418 80.956 4.41 80.502 0 80.087V54.85c28.493.727 57.086 2.856 79.045 4.49 29.637 2.208 47.189 3.515 36.102-.742-8.353-3.2-36.178-8.364-64.996-13.712C32.364 41.583 14.198 38.212 0 35.189z"></path><circle cx="75" cy="97" r="77" fill="#FCFCFC"></circle><circle cx="75" cy="97" r="77" fill="#9C3A52" opacity="0.3"></circle><path fill="#9C3A52" fill-rule="evenodd" stroke="#082630" stroke-linecap="round" stroke-linejoin="round" stroke-miterlimit="1.5" stroke-width="2.5px" d="M77.248 14.887c-14.165 18.174-9.13 38.13 6.137 35.575 19.039-3.187 15.542-20.803-6.137-35.575" clip-rule="evenodd"></path><path fill="#9C3A52" fill-rule="evenodd" stroke="#082630" stroke-linecap="round" stroke-linejoin="round" stroke-miterlimit="1.5" stroke-width="2.5px" d="M51.968 31.768c-4.062 18.864 7.003 32.08 17.586 24.591 13.196-9.338 4.142-21.347-17.586-24.59M15.994 207.515c12.201 19.547 32.672 21.674 35.518 6.458 3.547-18.975-14.197-21.742-35.518-6.458" clip-rule="evenodd"></path><path fill="#9C3A52" fill-rule="evenodd" stroke="#082630" stroke-linecap="round" stroke-linejoin="round" stroke-miterlimit="1.5" stroke-width="2.5px" d="M30.837 172.606c-5.145 22.46 7.86 38.411 20.613 29.637 15.902-10.944 5.28-25.425-20.613-29.637" clip-rule="evenodd"></path><path fill="#9C3A52" fill-rule="evenodd" stroke="#082630" stroke-linecap="round" stroke-linejoin="round" stroke-miterlimit="1.5" stroke-width="2.5px" d="M74.57 172.766c-22.192 6.202-29.998 25.245-16.2 32.262 17.208 8.747 24.86-7.5 16.2-32.262" clip-rule="evenodd"></path><path stroke="#082630" stroke-width="2.5px" d="M65.878 189.323c-6.192 19.03-9.914 15.691-4.973 33.694M32.937 210.015c18.97 1.167 27.892 2.454 25.127 16.767" fill="none"></path><path fill="#9C3A52" fill-rule="evenodd" stroke="#082630" stroke-linecap="round" stroke-linejoin="round" stroke-miterlimit="1.5" stroke-width="2.5px" d="M207.47 191.583c-4.83 15.38-18.321 20.417-22.921 10.611-5.735-12.227 5.797-17.218 22.921-10.611" clip-rule="evenodd"></path><path fill="#9C3A52" fill-rule="evenodd" stroke="#082630" stroke-linecap="round" stroke-linejoin="round" stroke-miterlimit="1.5" stroke-width="2.5px" d="M186.124 164.85c14.486 11.568 14.283 28.126 1.858 28.986-15.494 1.07-16.056-13.368-1.858-28.986" clip-rule="evenodd"></path><path fill="#9C3A52" fill-rule="evenodd" stroke="#082630" stroke-linecap="round" stroke-linejoin="round" stroke-miterlimit="1.5" stroke-width="2.5px" d="M163.985 176.134c15.381 3.011 21.698 15.503 12.72 21.003-11.197 6.857-17.26-3.747-12.72-21.003" clip-rule="evenodd"></path><path stroke="#082630" stroke-width="2.5px" d="M193.86 197.096c-6.939 3.278-9.824-1.528-18.74 10.821M187.134 178.551c.396 11.576-4.255 18.263-12.896 30.065" fill="none"></path><path stroke="#082630" stroke-width="2.5px" d="M170.182 188.106c7.42 11.741 10.68 11.495 4.626 20.062" fill="none"></path><path fill="#9C3A52" fill-rule="evenodd" stroke="#082630" stroke-linecap="round" stroke-linejoin="round" stroke-miterlimit="1.5" stroke-width="2.5px" d="M20.61 234.336c17.23-10.226 33.894-3.694 30.015 9.197-4.837 16.074-19.65 11.125-30.015-9.197" clip-rule="evenodd"></path><path fill="#9C3A52" fill-rule="evenodd" stroke="#082630" stroke-linecap="round" stroke-linejoin="round" stroke-miterlimit="1.5" stroke-width="2.5px" d="M18.186 276.787c-3.808-22.725 10.117-37.879 22.329-28.366 15.227 11.865 3.767 25.692-22.33 28.366" clip-rule="evenodd"></path><path fill="#9C3A52" fill-rule="evenodd" stroke="#082630" stroke-linecap="round" stroke-linejoin="round" stroke-miterlimit="1.5" stroke-width="2.5px" d="M48.033 284.711c-11.734-15.548-7.217-32.35 5.655-29.99 16.052 2.944 12.864 17.788-5.655 29.99" clip-rule="evenodd"></path><path stroke="#082630" stroke-width="2.5px" d="M37.778 240.526c9.142 2.723 7.824 9.564 26.322 5.534M28.618 263.27c9.238-11.041 19.09-13.372 36.878-17.123" fill="none"></path><path stroke="#082630" stroke-width="2.5px" d="M52.235 268.492c2.875-17.022-.347-19.499 12.364-22.404" fill="none"></path><path fill="#9C3A52" fill-rule="evenodd" stroke="#082630" stroke-linecap="round" stroke-linejoin="round" stroke-miterlimit="1.5" stroke-width="2.5px" d="M98.598 42.546c-16.264 1.51-24.124 13.802-15.39 20.446 10.892 8.283 18.29-2.078 15.39-20.446" clip-rule="evenodd"></path><path fill="#9C3A52" fill-rule="evenodd" stroke="#082630" stroke-linecap="round" stroke-linejoin="round" stroke-miterlimit="1.5" stroke-width="2.5px" d="M120.536 69.38c-8.376-16.812-24.821-20.135-28.317-8.01-4.359 15.12 9.824 18.75 28.317 8.01" clip-rule="evenodd"></path><path fill="#9C3A52" fill-rule="evenodd" stroke="#082630" stroke-linecap="round" stroke-linejoin="round" stroke-miterlimit="1.5" stroke-width="2.5px" d="M104.646 88.907c.29-15.876-10.74-24.793-18.099-17.07-9.175 9.632.039 17.895 18.099 17.07" clip-rule="evenodd"></path><path stroke="#082630" stroke-width="2.5px" d="M90.241 54.851c-4.724 6.177-.578 10.057-14.709 16.261M107.179 65.465c-11.382-2.857-18.997.327-32.526 6.375" fill="none"></path><path stroke="#082630" stroke-width="2.5px" d="M94.106 80.224c-10.052-9.849-9.114-13.026-18.889-8.852" fill="none"></path><path fill="#9C3A52" fill-rule="evenodd" stroke="#082630" stroke-linecap="round" stroke-linejoin="round" stroke-miterlimit="1.5" stroke-width="2.5px" d="M119.13 65.925c-16.476 11.403-17.481 29.273-4.147 31.118 16.629 2.3 18.301-13.228 4.147-31.118" clip-rule="evenodd"></path><path fill="#9C3A52" fill-rule="evenodd" stroke="#082630" stroke-linecap="round" stroke-linejoin="round" stroke-miterlimit="1.5" stroke-width="2.5px" d="M158.73 81.409c-19.071-12.93-38.65-6.585-35.09 8.48 4.441 18.785 21.786 14.129 35.09-8.48" clip-rule="evenodd"></path><path fill="#9C3A52" fill-rule="evenodd" stroke="#082630" stroke-linecap="round" stroke-linejoin="round" stroke-miterlimit="1.5" stroke-width="2.5px" d="M153.498 111.843c-9.245-17.145-26.401-20.04-29.619-7.354-4.012 15.818 10.811 19.105 29.619 7.354" clip-rule="evenodd"></path><path stroke="#082630" stroke-width="2.5px" d="M117.601 84.109c-1.199 7.925 9.173 9.842-1.972 22.413" fill="none"></path><path stroke="#082630" stroke-width="2.5px" d="M142.095 85.261c-13.886 3.797-20.11 11.782-30.932 26.39M137.004 108.905c-16.672-4.478-24.8 2.335-32.737 12.679" fill="none"></path><path fill="#FCFCFC" stroke="#082630" stroke-width="2.5px" d="M72.486 267.202c-.49 5.578-33.12 26.532-49.373 36.311l62.26 5.479c4.833-3.59 16.019-14.351 22.098-28.673 7.599-17.903 72.249-62.407 74.636-66.714 2.386-4.308-6.699-15.146-10.229-14.955-2.666 1.773-12.671 1.395-18.648.869-1.482-11.675-47.401-48.843-63.064-64.778 17.094-6.526 10.698-8.108 27.334-31.741-10.28 14.153-22.708 19.098-37.913 20.772-23.912-19.17-15.214-32.459-10.265-43.066 4.642-7.12 22.8-36.642 14.815-42.866-1.469 19.446-14.452 27.338-20.72 35.822-5.198 7.034-15.624 23.461-11.24 36.395 4.382 12.934 81.19 86.952 85.88 96.399-2.694 7.794-44.803 41.492-54.617 44.644-6.124-4.555-16.791-14.528-16.221-21.003s-4.487-17.461-11.974-23.641c3.59 4.834 3.622 15.879 1.442 29.239s16.413 24.534 15.8 31.507Z"></path><path fill="#9C3A52" fill-rule="evenodd" stroke="#082630" stroke-linecap="round" stroke-linejoin="round" stroke-miterlimit="1.5" stroke-width="2.5px" d="M86.947 185.201c9.607 13.209 24.189 13.687 25.439 2.785 1.557-13.595-11.129-14.662-25.44-2.785" clip-rule="evenodd"></path><path fill="#9C3A52" fill-rule="evenodd" stroke="#082630" stroke-linecap="round" stroke-linejoin="round" stroke-miterlimit="1.5" stroke-width="2.5px" d="M98.809 152.633c-10.174 15.789-4.63 31.624 7.58 28.435 15.225-3.977 11.099-18.024-7.58-28.435" clip-rule="evenodd"></path><path fill="#9C3A52" fill-rule="evenodd" stroke="#082630" stroke-linecap="round" stroke-linejoin="round" stroke-miterlimit="1.5" stroke-width="2.5px" d="M123.712 156.318c-13.797 7.86-15.828 21.897-5.429 24.278 12.968 2.968 15.364-9.175 5.429-24.278" clip-rule="evenodd"></path><path stroke="#082630" stroke-width="2.5px" d="M101.795 186.098c7.723.907 8.941-4.64 21.493 4.338M102.266 166.115c3.36 11.245 9.986 16.165 22.097 24.706" fill="none"></path><path stroke="#082630" stroke-width="2.5px" d="M121.633 169.815c-3.332 13.672-6.543 14.489 2.039 20.76" fill="none"></path><path fill="#9C3A52" fill-rule="evenodd" stroke="#082630" stroke-linecap="round" stroke-linejoin="round" stroke-miterlimit="1.5" stroke-width="2.5px" d="M18.571 134.359c16.49 11.382 33.561 6.007 30.575-7.119-3.725-16.368-18.842-12.445-30.575 7.119" clip-rule="evenodd"></path><path fill="#9C3A52" fill-rule="evenodd" stroke="#082630" stroke-linecap="round" stroke-linejoin="round" stroke-miterlimit="1.5" stroke-width="2.5px" d="M19.06 91.843c-5.357 22.41 7.498 38.483 20.333 29.828 16.004-10.793 5.518-25.373-20.334-29.828" clip-rule="evenodd"></path><path fill="#9C3A52" fill-rule="evenodd" stroke="#082630" stroke-linecap="round" stroke-linejoin="round" stroke-miterlimit="1.5" stroke-width="2.5px" d="M49.38 85.981c-12.771 14.707-9.415 31.779 3.588 30.307 16.215-1.838 14.052-16.865-3.587-30.307" clip-rule="evenodd"></path><path stroke="#082630" stroke-width="2.5px" d="M36.122 129.36c9.307-2.091 8.46-9.006 26.639-3.718M28.542 106.041c8.46 11.648 18.13 14.649 35.619 19.61" fill="none"></path><path stroke="#082630" stroke-width="2.5px" d="M52.46 102.45c1.703 17.178-1.681 19.428 10.8 23.198M131.855 243.816c-10.506 9.114-31.597 28.239-31.913 31.825-.394 4.483-13.838 20.365-27.386 31.721M88.739 283.188c-8.802 8.762-29.787 28.198-43.309 35.842M62.607 43.977c5.451 6.502 14.843 13.854 3.698 26.425M41.43 187.673l17.907 24.665" fill="none"></path><path fill="#9C3A52" fill-rule="evenodd" stroke="#082630" stroke-linecap="round" stroke-linejoin="round" stroke-miterlimit="1.5" stroke-width="2.5px" d="M112.872 221.422c-7.868 18.428-25.172 22.996-29.654 10.303-5.588-15.829 9.288-20.582 29.654-10.303" clip-rule="evenodd"></path><path fill="#9C3A52" fill-rule="evenodd" stroke="#082630" stroke-linecap="round" stroke-linejoin="round" stroke-miterlimit="1.5" stroke-width="2.5px" d="M89.76 185.731c16.493 16.091 14.203 36.544-1.27 36.077-19.294-.583-18.211-18.509 1.27-36.077" clip-rule="evenodd"></path><path fill="#9C3A52" fill-rule="evenodd" stroke="#082630" stroke-linecap="round" stroke-linejoin="round" stroke-miterlimit="1.5" stroke-width="2.5px" d="M60.993 196.962c18.65 5.618 24.927 21.845 13.145 27.542-14.692 7.102-20.885-6.76-13.145-27.542" clip-rule="evenodd"></path><path stroke="#082630" stroke-width="2.5px" d="M95.362 226.564c-8.986 3.2-11.962-3.099-24.51 11.077M89.324 202.8c-.936 14.366-7.51 22.064-19.65 35.596" fill="none"></path><path stroke="#082630" stroke-width="2.5px" d="M67.181 212.532c7.731 15.434 11.794 15.531 3.252 25.382" fill="none"></path></svg>