<svg xmlns:xlink="http://www.w3.org/1999/xlink" xmlns="http://www.w3.org/2000/svg" fill="none" viewBox="0 0 200 300" width="200"  height="300" ><path fill="#FCFCFC" d="M0 0h200v300H0z"></path><path fill="#153456" d="M-24-13h270v272H-24z" opacity="0.12"></path><path fill="#082630" d="M345.993 159.253c-15.083 17.345-29.541 33.97-49.712 28.064-19.698-5.768-42.236-1.074-58.296 2.272-8.982 1.871-15.938 3.32-19.239 2.28-2.265-.713-3.943-1.492-5.482-2.206-3.462-1.608-6.218-2.887-13.361-2.346-13.802 1.046-21.315 9.868-26.656 16.139-3.113 3.655-5.488 6.444-7.941 6.322-4.544-.225-9.766 3.52-14.742 7.09-2.318 1.662-4.583 3.287-6.701 4.454-2.073 1.142-4.144 2.391-6.21 3.636-6.665 4.019-13.271 8.001-19.694 8.254-5.952.234-11.256-.555-16.157-1.284-3.759-.559-7.28-1.083-10.677-1.083-5.077 0-10.012 1.957-15.966 4.318-7.638 3.029-16.954 6.723-30.397 7.802-13.655 1.096-27.556-1.871-37.108-3.911-3.97-.847-7.188-1.535-9.326-1.703-12.116-.956-29.932 6.245-46.764 13.048-18.897 7.638-36.554 14.774-43.507 9.301l-9.223 10.889c-9.826-1.531-18.52-4.44-27.258-7.364-11.125-3.722-22.324-7.469-36.027-8.428-10.272-.718-20.451.688-30.558 2.085-2.549.352-5.093.703-7.634 1.02-12.608 1.574-27.463-1.198-37.742-5.24-6.347-2.495-9.976-6.312-13.578-10.1-4.104-4.317-8.171-8.595-16.183-10.834-8.008-2.239-17.347-1.698-26.727-1.154l-.025.001c-8.87.515-17.779 1.029-25.63-.806-8.272-1.935-13.413-6.023-18.394-9.984-.724-.575-1.444-1.148-2.17-1.71-5.726-4.437-40.484-9.188-50.908-9.149v142.26H76.226C152.413 364.916 218.62 376 233.207 376h117.002c12.137-6.441 29.569-15.837 45.698-24.814H511V214.674c-1.923.319-10.019.767-22.543 1.32-1.87-34.282-12.957-70.465-22.951-74.618-1.082-.45-2.446-1.101-4.086-1.884-11.638-5.559-37.214-17.776-75.31-11.959-15.858 3.824-28.183 17.998-40.117 31.72"></path><path fill="#FCFCFC" d="M625.397 80.846c-1.462.453-2.757.599-4.288.571a12600 12600 0 0 0-50.3-.822c-13.804-.215-23.296-2.076-31.689-3.723-8.233-1.614-15.409-3.022-24.559-2.463-29.346 1.755-58.723 12.23-54.29 14.676 5.456 3.002 17.905 21.825-7.705 21.219-25.674-.563-44.405-5.075-64.606-9.941-14.381-3.464-29.507-7.108-48.413-9.634-31.41-4.262-81.821-1.78-110.947 2.277-28.818 4.063-49.126 4.042-58.568 4.032-5.409-.005-7.253-.007-5.088.764 17.663 6.355 53.646 6.31 81.619 6.276 15.911-.02 29.23-.036 35.112 1.13 9.567 1.896 18.586 3.762 27.179 5.54 27.035 5.594 49.846 10.313 72.217 12.351 45.477 4.105 69.76 10.641 87.157 15.323 4.459 1.201 8.466 2.279 12.262 3.164 25.635 5.982-3.14 9.049-33.468 12.281-9.053.965-18.244 1.945-26.168 3.021-8.692 1.191-15.843 1-23.209.804-11.357-.303-23.225-.619-42.042 4.09-28.282 7.059-55.153-1.525-60.63-5.123-1.673-1.099-2.987-2.578-4.496-4.276-4.337-4.879-10.289-11.576-31.03-16.327-30.47-7.004-170.558-14.839-203.787-14.625-23.928.15.008 3.936 30.194 8.709 15.516 2.454 32.684 5.169 45.851 7.786a786 786 0 0 0 13.719 2.609c22.91 4.145 7.28 55.875-81.605 26.987a285 285 0 0 1-8.557-1.833c-27.522-6.348-52.525-9.81-73.623-12.732-5.656-.783-11.032-1.528-16.1-2.279-55.122-8.091-64.551-13.081-48.827-12.966 42.505 2.325 99.049 2.801 82.346-.285-21.93-4.056-117.387-10.753-123.027-10.341-20.673 1.604-62.698-5.541-102.077-12.238-34.105-5.799-66.227-11.261-80.778-10.409-2.093.12-4.638.312-7.521.529-14.343 1.081-37.033 2.791-53.879-.563-20.963-4.199-1.926-5.767 20.127-7.584 11.682-.962 24.209-1.994 32.086-3.524 22.403-4.32 34.767-3.285 84.38.934 14.324 1.215 26.388.198 39.492-.907 14.195-1.197 29.61-2.497 50.442-1.173 22.936 1.442 43.786 3.093 61.919 4.529 38.783 3.07 65.137 5.157 72.889 2.11 15.75-6.182 28.03-6.563 43.115-6.83 15.063-.245 29.874.948 41.557 1.888 14.296 1.151 23.906 1.925 23.556-.775-.499-3.805-51.343-8.427-86.545-11.627C3.6 80.428-6.012 79.555-11.92 78.896c-21.201-2.358-47.06-1.846-72.688-1.338-24.319.482-48.428.96-68.147-1.024-40.169-4.027-75.575-10.931-108.583-17.368-20.774-4.051-40.598-7.917-60.061-10.764-12.086-1.781-24.057-1.846-36.297-1.913-5.478-.03-11.009-.06-16.629-.245-15.607-.524-75.154-13.969-54.925-15.381 21.023-1.435 86.683.098 111.11 1.521 18.074.998 34.829 2.53 49.01 3.828 19.653 1.798 34.363 3.144 40.791 1.986 8.249-1.468 16.368-3.037 23.908-4.495 16.72-3.231 30.596-5.913 36.748-5.727 5.701.133 8.066 1.455 10.985 3.088 4.896 2.737 11.353 6.348 37.738 6.682 11.864.161 4.366 1.017-8.038 2.434-14.17 1.618-34.741 3.967-40.162 6.845-2.125 1.128.848 2.695 3.252 2.803C-139.28 50.941-62.54 53.35-.435 54.838c28.637.716 57.41 2.859 79.48 4.502 29.637 2.207 47.189 3.514 36.102-.743-8.353-3.199-36.178-8.363-64.996-13.712-28.405-5.272-57.774-10.723-70.41-14.647-5.191-1.645 57.042-.453 97.974.331 18.974.364 33.371.64 34.354.504 3.764-.466 13.61 1.322 26.121 3.595 15.02 2.728 33.882 6.154 50.675 7.214 24.276 1.558 76.216-9.168 70.756-10.016-29.002-4.381-8.191-10.153 20.676-18.16C293.773 9.97 309.004 5.746 321.743.949c9.16-3.453 4.037-11.792-.354-18.94-1.596-2.6-3.096-5.04-3.777-7.032-.414-1.21.151-2.285.74-3.405.412-.782.835-1.586.943-2.473.152-1.246-.445-2.52-1.059-3.83-.417-.891-.842-1.799-1.046-2.726-2.958-13.472 52.928-22.387 66.68-23.449 12.732-.983 25.189-3.136 29.889-9.075.602-.761 1.119-1.602 1.633-2.44 1.022-1.663 2.036-3.313 3.695-4.294 13.931-8.238 41.937-1.091 48.244 2.82-5.14 1.223-6.616 1.942-2.946 2.118 4.699.234 5.164-.742 2.946-2.117 4.56-1.084 12.001-2.562 21.291-4.409 12.92-2.567 29.416-5.845 46.704-9.759 34.027-7.681 67.209-12.237 97.705-16.424a3498 3498 0 0 0 22.645-3.158 14 14 0 0 1 1.767-.143c5.522-.098 35.574-.569 55.475.385 39.134 1.875 65.843 12.16 93.009 22.62 33.067 12.734 66.81 25.727 124.465 24.134-1.093 2.305 6.263 1.91 13.22 1.537 12.839-.69 24.319-1.306-21.18 15.26s-34.624 17.224-22.46 17.96c6.591.4 13.559.822 12.144 3.81 110.684-20.67-256.399 93.52-286.719 102.928"></path><path fill="#FCFCFC" d="M-626.145-225.276c-34.351-11.401-38.751-36.086 7.089-20.734 29.94 9.983 59.418 20.531 78.876 32.071.024.015 1.218.483 3.345 1.316 18.318 7.176 105.844 41.462 111.426 47.651 5.158 5.643 91.661 53.054 122.31 56.212 26.843 2.816 57.092 8.706 84.238 14.537 10.966 2.376 21.429 4.747 30.961 6.906 27.595 6.251 47.396 10.737 49.052 8.505.49-.655.73-1.409.971-2.167 1.198-3.766 2.427-7.63 34.572.15 31.605 7.635 76.057 15.957 122.09 23.533 47.734 7.794 132.761 18.981 140.491 19.995.419.055.755.083 1.177.1 6.543.282 63.559 2.794 66.989 4.918 16.09 10.057-68.019 5.898-77.058 5.424a14 14 0 0 1-1.589-.178c-7.633-1.275-68.44-11.118-142.35-13.89-2.595-.091-7.347-.348-13.471-.68-29.239-1.58-89.747-4.851-96.158.172-1.175.928 13.706 3 33.04 5.694 21.252 2.96 47.885 6.67 64.493 10.432 8.774 1.987 7.48 6.09-1.493 5.436-27.679-2.02-81.099-8.076-146.334-18.79-33.325-5.475-61.528-6.797-84.379-7.868-18.187-.853-32.983-1.547-44.273-4.049-10.187-2.303-25.071-7.588-38.892-16.152l-.276-.169c-.953-.579-2.087-1.267-1.923-2.316.282-1.802 5.318-2.454 10.763-3.158 5.629-.729 11.694-1.514 13.394-3.684 2.467-3.163-22.355-9.018-51.56-15.908-20.249-4.777-42.605-10.051-59.434-15.27-21.295-6.593-1.576-7.639 12.999-8.412 7.08-.375 12.946-.687 12.309-1.538-2.241-2.87-33.653-13.056-112.387-35.569-21.847-6.196-102.038-37.419-100.868-47.663.069-.587-.161-1.408-.411-2.301-1.303-4.646-3.149-11.23 33.945 3.218 11.471 4.432 60.053 22.85 61.926 22.638 3.641-.385-57.078-26.367-123.6-48.412"></path><circle cx="100" cy="153" r="61" fill="#FCFCFC"></circle><circle cx="100" cy="153" r="61" fill="#153456" opacity="0.25"></circle><path fill="#153456" fill-rule="evenodd" stroke="#082630" stroke-linecap="round" stroke-linejoin="round" stroke-miterlimit="1.5" stroke-width="2.5px" d="M68.06 153.872c-10.739 15.41-5.772 31.436 6.545 28.692 15.36-3.424 11.746-17.611-6.544-28.692" clip-rule="evenodd"></path><path fill="#9FA9AD" fill-rule="evenodd" stroke="#082630" stroke-linecap="round" stroke-linejoin="round" stroke-miterlimit="1.5" stroke-width="2.5px" d="M68.06 153.872c-10.739 15.41-5.772 31.436 6.545 28.692 15.36-3.424 11.746-17.611-6.544-28.692" clip-rule="evenodd" opacity="0.5"></path><path stroke="#082630" stroke-width="2.5px" d="M71.027 167.472c2.95 11.358 9.394 16.515 21.187 25.49" fill="none"></path><path fill="#FCFCFC" d="M105.769 307.255c-7.93 2.017-18.98 1.769-26.269 0zc2.967-.755 5.498-1.827 7.231-3.255.928-10.507-25.509-111.646-22.5-124.967s4-14.92 12.08-34.92c0 0-5.166 17.474-7.58 29-2.268 10.827 4.5 25.387 4.5 25.387q2.25 3 13.5 0c-6 3-6 3.5-12 5.113 5.049 21.766 17.43 57.001 22.5 75.501 10.669 23.763 24.444 28.017 28.182 28.141H152a6 6 0 0 1-.318 0z"></path><path stroke="#082630" stroke-width="2.5px" d="M79.5 307.255c10.017 2.431 27.136 1.989 33.5-3.255.928-10.507-25.509-111.646-22.5-124.967s4-14.92 12.08-34.92c0 0-5.166 17.474-7.58 29-2.268 10.827 4.5 25.387 4.5 25.387q2.25 3 13.5 0c-6 3-6 3.5-12 5.113 5.049 21.766 17.43 57.001 22.5 75.501 11 24.499 25.301 28.263 28.5 28.141z" fill="none"></path><path fill="#153456" fill-rule="evenodd" stroke="#082630" stroke-linecap="round" stroke-linejoin="round" stroke-miterlimit="1.5" stroke-width="2.5px" d="M139.277 167.597c7.234 17.334-1.012 31.945-12.469 26.656-14.287-6.597-7.752-19.697 12.469-26.656" clip-rule="evenodd"></path><path fill="#9FA9AD" fill-rule="evenodd" stroke="#082630" stroke-linecap="round" stroke-linejoin="round" stroke-miterlimit="1.5" stroke-width="2.5px" d="M139.277 167.597c7.234 17.334-1.012 31.945-12.469 26.656-14.287-6.597-7.752-19.697 12.469-26.656" clip-rule="evenodd" opacity="0.5"></path><path fill="#153456" fill-rule="evenodd" stroke="#082630" stroke-linecap="round" stroke-linejoin="round" stroke-miterlimit="1.5" stroke-width="2.5px" d="M114.113 166.838c12.196 10.168 11.724 24.343 1.068 24.855-13.287.638-13.508-11.737-1.068-24.855" clip-rule="evenodd"></path><path fill="#9FA9AD" fill-rule="evenodd" stroke="#082630" stroke-linecap="round" stroke-linejoin="round" stroke-miterlimit="1.5" stroke-width="2.5px" d="M114.113 166.838c12.196 10.168 11.724 24.343 1.068 24.855-13.287.638-13.508-11.737-1.068-24.855" clip-rule="evenodd" opacity="0.5"></path><path stroke="#082630" stroke-width="2.5px" d="M133.496 180.26c-5.543 10.671-9.835 13.391-23.996 19.74" fill="none"></path><path stroke="#082630" stroke-width="2.5px" d="M113.274 180.434c3.225 15.066 3.725 14.567-6.275 19.567M108.001 244.613c6.036 23.952 11.136 52.457 32 67.5" fill="none"></path><path fill="#153456" fill-rule="evenodd" stroke="#082630" stroke-linecap="round" stroke-linejoin="round" stroke-miterlimit="1.5" stroke-width="2.5px" d="M95.733 114.93c-14.003 14.332-11.587 32.066 1.855 31.338 16.761-.908 15.447-16.47-1.855-31.338" clip-rule="evenodd"></path><path fill="#9FA9AD" fill-rule="evenodd" stroke="#082630" stroke-linecap="round" stroke-linejoin="round" stroke-miterlimit="1.5" stroke-width="2.5px" d="M95.733 114.93c-14.003 14.332-11.587 32.066 1.855 31.338 16.761-.908 15.447-16.47-1.855-31.338" clip-rule="evenodd" opacity="0.5"></path><path fill="#153456" fill-rule="evenodd" stroke="#082630" stroke-linecap="round" stroke-linejoin="round" stroke-miterlimit="1.5" stroke-width="2.5px" d="M137.556 122.59c-21.185-9.063-39.197.895-32.833 15.006 7.937 17.596 24.078 9.723 32.833-15.006" clip-rule="evenodd"></path><path fill="#9FA9AD" fill-rule="evenodd" stroke="#082630" stroke-linecap="round" stroke-linejoin="round" stroke-miterlimit="1.5" stroke-width="2.5px" d="M137.556 122.59c-21.185-9.063-39.197.895-32.833 15.006 7.937 17.596 24.078 9.723 32.833-15.006" clip-rule="evenodd" opacity="0.5"></path><path stroke="#082630" stroke-width="2.5px" d="M97.696 133.074c.49 9.526 7.448 9.86-.832 26.884M121.96 129.539c-12.909 6.372-17.499 15.396-25.341 31.797" fill="none"></path></svg>