<svg xmlns:xlink="http://www.w3.org/1999/xlink" xmlns="http://www.w3.org/2000/svg" fill="none" viewBox="0 0 200 300" width="200"  height="300" ><path fill="#FCFCFC" d="M0 0h200v300H0z"></path><path fill="#F4726D" d="M0 0h200v300H0z" opacity="0.15"></path><path fill="#153456" d="M200 208.06a533 533 0 0 1-7.446-2.922c-10.274-4.09-18.79-7.481-27.55-7.481-5.86 0-11.938.908-18.424 1.877-8.456 1.263-17.608 2.63-27.878 2.224-11.083-.438-22.481-7.338-33.983-14.301-3.564-2.157-7.138-4.321-10.715-6.3-3.655-2.022-7.562-4.836-11.562-7.717-8.587-6.185-17.598-12.674-25.438-12.283-4.232.211-8.33-4.621-13.702-10.954-5.74-6.769-12.935-15.252-23.302-21.126V300h200z" opacity="0.5"></path><path fill="#082630" d="M200 239.431V300H0V191.954a188 188 0 0 1 18.662 11.187c4.006 7.438 8.463 14.341 18.59 17.279 11.056 3.205 22.409-.251 33.85-3.733 4.885-1.487 9.787-2.979 14.688-3.96 18.312-3.661 38.137.081 55.354 5.858 7.48 2.508 14.689 5.395 21.895 8.282 9.384 3.758 18.763 7.515 28.73 10.429 2.681.784 5.432 1.502 8.231 2.135" opacity="0.5"></path><path fill="#082630" d="M200 284.818V300H0v-8.867C35.668 284.029 76.427 280 119.715 280c28.056 0 55.051 1.692 80.285 4.818"></path><circle cx="61.715" cy="60" r="40" fill="#FCFCFC"></circle><path fill="#082630" stroke="#082630" stroke-width="2.5px" d="M148.806 238.71h-42.12v2.43h42.12z"></path><path fill="#FCFCFC" fill-rule="evenodd" d="M147.7 233.664v-15.39h-39.798v15.39z" clip-rule="evenodd"></path><path fill="#C74A4A" fill-rule="evenodd" stroke="#082630" stroke-width="2.5px" d="M110.824 233.846v-15.39h-5.67v15.39zM150.516 233.846v-15.39h-5.67v15.39z" clip-rule="evenodd"></path><path fill="#C74A4A" stroke="#082630" stroke-width="2.5px" d="M153.664 232.854h-51.84v5.67h51.84z"></path><path fill="#C74A4A" fill-rule="evenodd" stroke="#082630" stroke-width="2.5px" d="M127.715 219.376c-46.142 0-46.17-2.197-46.17-3.753 18.277-1.876 42.328-14.067 42.328-14.067h7.684s24.051 12.191 42.328 14.067c0 1.556-.028 3.753-46.17 3.753Z" clip-rule="evenodd"></path><path fill="#FCFCFC" fill-rule="evenodd" d="M147.7 204.796v-15.39h-39.798v15.39z" clip-rule="evenodd"></path><path fill="#C74A4A" fill-rule="evenodd" stroke="#082630" stroke-width="2.5px" d="M110.824 204.977v-15.39h-5.67v15.39zM150.516 204.977v-15.39h-5.67v15.39z" clip-rule="evenodd"></path><path fill="#C74A4A" stroke="#082630" stroke-width="2.5px" d="M153.664 203.986h-51.84v5.67h51.84z"></path><path fill="#C74A4A" fill-rule="evenodd" stroke="#082630" stroke-width="2.5px" d="M127.715 190.507c-46.142 0-46.17-2.197-46.17-3.753 18.277-1.876 42.328-14.067 42.328-14.067h7.684s24.051 12.191 42.328 14.067c0 1.556-.028 3.753-46.17 3.753Z" clip-rule="evenodd"></path><path fill="#C74A4A" stroke="#082630" stroke-width="2.025px" d="M127.645 175.407a4.195 4.195 0 1 0 0-8.39 4.195 4.195 0 0 0 0 8.39Z"></path><path stroke="#082630" stroke-width="2.025px" d="M127.715 167.615v-22.68" fill="none"></path><path fill="#082630" stroke="#082630" stroke-width="2.5px" d="M160.924 277.09h-65.61v5.67h65.61z"></path><path fill="#FCFCFC" stroke="#082630" stroke-width="2.5px" d="M147.965 243.88h-39.69v30.78h39.69z"></path><path fill="#C74A4A" fill-rule="evenodd" stroke="#082630" stroke-width="2.5px" d="M156.065 272.23V261.7h-4.86v10.53zM104.225 272.23V261.7h-4.86v10.53zM117.184 272.23V261.7h-4.86v10.53zM143.104 272.23V261.7h-4.86v10.53z" clip-rule="evenodd"></path><path fill="#082630" stroke="#082630" stroke-width="2.5px" d="M133.491 251.17h-10.264v18.904h10.264z"></path><path fill="#C74A4A" stroke="#082630" stroke-width="2.5px" d="M160.114 238.21h-64.8v5.67h64.8zM165.785 271.42h-76.14v5.67h76.14zM117.184 259.27h-22.68v5.67h22.68zM160.924 259.27h-22.68v5.67h22.68z"></path></svg>