<svg xmlns:xlink="http://www.w3.org/1999/xlink" xmlns="http://www.w3.org/2000/svg" fill="none" viewBox="0 0 200 300" width="200"  height="300" ><path fill="#FCFCFC" d="M0 0h200v300H0z"></path><path fill="#F4726D" d="M0 0h200v300H0z" opacity="0.35"></path><path fill="#153456" d="M200 208.06a533 533 0 0 1-7.446-2.922c-10.274-4.09-18.79-7.481-27.55-7.481-5.86 0-11.938.908-18.424 1.877-8.456 1.263-17.608 2.63-27.878 2.224-11.083-.438-22.481-7.338-33.983-14.301-3.564-2.157-7.138-4.321-10.715-6.3-3.655-2.022-7.562-4.836-11.562-7.717-8.587-6.185-17.598-12.674-25.438-12.283-4.232.211-8.33-4.621-13.702-10.954-5.74-6.769-12.935-15.252-23.302-21.126V300h200z" opacity="0.5"></path><path fill="#082630" d="M200 239.431V300H0V191.954a188 188 0 0 1 18.662 11.187c4.006 7.438 8.463 14.341 18.59 17.279 11.056 3.205 22.409-.251 33.85-3.733 4.885-1.487 9.787-2.979 14.688-3.96 18.312-3.661 38.137.081 55.354 5.858 7.48 2.508 14.689 5.395 21.895 8.282 9.384 3.758 18.763 7.515 28.73 10.429 2.681.784 5.432 1.502 8.231 2.135" opacity="0.5"></path><path fill="#082630" d="M200 284.818V300H0v-8.867C35.668 284.029 76.427 280 119.715 280c28.056 0 55.051 1.692 80.285 4.818"></path><circle cx="66.715" cy="65" r="45" fill="#FCFCFC"></circle><path fill="#F4726D" fill-rule="evenodd" d="M115.931 64.566C85.984 47.056 112.997 7.37 126.599 7.37c-17.043 32.494 38.615 19.471 21.158 51.667 11.732 24.565 31.522 16.914 31.522 0 33.54 33.54 22.633 61.008 6.983 76.658 9.383 7.405 3.617 12.055-2.404 32.295 2.187 3.293 3.591 2.563 7.632-2.084 12.692 31.066-15.408 86.278-35.723 102.152 7.6-29.224 5.151-52.577-26.59-52.577s-33.96 20.782-26.59 52.577c-21.249-17.07-40.242-63.96-32.74-80.955-.654 6.584 6.06 6.356 8.936 1.962 2.213-3.382.182-24.754-6.876-23.159-21.165-36.706-26.998-54.714 2.012-89.414 5.98 22.158 21.515 14.6 22.738 6.094-13.473-10.094-10.572-18.418-8.799-25.852 7.983 15.883 18.177 14.978 28.073 7.83" clip-rule="evenodd" opacity="0.5"></path><path fill="#082630" stroke="#082630" stroke-width="2.5px" d="M160.114 230.921h-64.8v4.86h64.8z"></path><path fill="#FCFCFC" fill-rule="evenodd" d="M147.67 230.957v-23.091h-39.797v23.091z" clip-rule="evenodd"></path><path fill="#C74A4A" fill-rule="evenodd" stroke="#082630" stroke-width="2.025px" d="M110.797 230.728v-22.68h-5.67v22.68zM150.486 230.728v-22.68h-5.67v22.68z" clip-rule="evenodd"></path><path fill="#C74A4A" stroke="#082630" stroke-width="2.025px" d="M156.154 205.461h-57.42v5.485h57.42zM164.657 225.058H90.568v5.484h74.089z"></path><path fill="#082630" d="M165.055 198.86H90.291v8.727h74.764z"></path><path fill="#C74A4A" fill-rule="evenodd" stroke="#082630" stroke-width="2.025px" d="M127.744 205.711c-52.647 0-52.68-2.49-52.68-4.254 20.855-2.127 48.297-23.292 48.297-23.292h8.767s27.442 21.165 48.296 23.292c0 1.764-.032 4.254-52.68 4.254Z" clip-rule="evenodd"></path><path fill="#082630" stroke="#082630" stroke-width="2.025px" d="M151.052 180.78H104.41v5.485h46.642z"></path><path fill="#FCFCFC" fill-rule="evenodd" d="M147.67 181.195v-23.091h-39.797v23.091z" clip-rule="evenodd"></path><path fill="#C74A4A" fill-rule="evenodd" stroke="#082630" stroke-width="2.025px" d="M110.797 180.965v-22.68h-5.67v22.68zM150.486 180.965v-22.68h-5.67v22.68z" clip-rule="evenodd"></path><path fill="#C74A4A" stroke="#082630" stroke-width="2.025px" d="M156.154 155.698h-57.42v5.485h57.42zM164.657 175.295H90.568v5.485h74.089z"></path><path fill="#082630" d="M165.055 149.098H90.291v8.727h74.764z"></path><path fill="#C74A4A" fill-rule="evenodd" stroke="#082630" stroke-width="2.025px" d="M127.744 155.948c-52.647 0-52.68-2.49-52.68-4.254 20.855-2.126 48.297-23.292 48.297-23.292h8.767s27.442 21.166 48.296 23.292c0 1.764-.032 4.254-52.68 4.254Z" clip-rule="evenodd"></path><path fill="#082630" stroke="#082630" stroke-width="2.025px" d="M151.052 131.019H104.41v5.484h46.642z"></path><path fill="#FCFCFC" fill-rule="evenodd" d="M147.67 131.433v-23.091h-39.797v23.091z" clip-rule="evenodd"></path><path fill="#C74A4A" fill-rule="evenodd" stroke="#082630" stroke-width="2.5px" d="M110.797 131.203v-22.68h-5.67v22.68zM150.486 131.203v-22.68h-5.67v22.68z" clip-rule="evenodd"></path><path fill="#C74A4A" stroke="#082630" stroke-width="2.5px" d="M156.154 105.937h-57.42v5.484h57.42z"></path><path fill="#C74A4A" stroke="#082630" stroke-width="2.025px" d="M164.657 125.533H90.568v5.485h74.089z"></path><path fill="#082630" d="M165.055 99.336H90.291v8.727h74.764z"></path><path fill="#C74A4A" fill-rule="evenodd" stroke="#082630" stroke-width="2.5px" d="M127.744 106.187c-52.647 0-52.68-2.49-52.68-4.254 20.855-2.127 48.297-23.292 48.297-23.292h8.767s27.442 21.165 48.296 23.292c0 1.764-.032 4.254-52.68 4.254Z" clip-rule="evenodd"></path><g stroke="#082630" stroke-width="2.025px" clip-path="url(#fast-hanafuda_svg__clip1_955_36202)" fill="none"><path fill="#C74A4A" d="M127.617 78.93a4.196 4.196 0 1 0 0-8.391 4.196 4.196 0 0 0 0 8.392Z" stroke="#082630" stroke-width="2.025px"></path><path fill="#C74A4A" d="M138.039 74.736H117.33v4.196h20.709z" stroke="#082630" stroke-width="2.025px"></path><path d="M127.711 70.945V33.28M122.852 37.735h9.72M122.852 40.976h9.72M122.852 44.216h9.72M122.852 47.455h9.72M122.852 50.695h9.72" stroke="#082630" fill="none" stroke-width="2.025px"></path></g><path fill="#082630" stroke="#082630" stroke-width="2.5px" d="M165.063 277.09H90.975v5.485h74.088z"></path><path fill="#FCFCFC" stroke="#082630" stroke-width="2.5px" d="M150.374 243.843h-44.55v30.78h44.55z"></path><path fill="#C74A4A" fill-rule="evenodd" stroke="#082630" stroke-width="2.5px" d="M78.305 272.23v-21.06h-4.86v21.06zM156.065 272.23V261.7h-4.86v10.53zM169.026 272.23V261.7h-4.86v10.53zM181.985 272.23v-21.06h-4.86v21.06zM91.266 272.23V261.7h-4.86v10.53zM104.225 272.23V261.7h-4.86v10.53zM117.186 272.23V261.7h-4.86v10.53zM143.106 272.23V261.7h-4.86v10.53z" clip-rule="evenodd"></path><path fill="#082630" stroke="#082630" stroke-width="2.5px" d="M133.491 251.17h-10.264v18.904h10.264z"></path><path fill="#C74A4A" stroke="#082630" stroke-width="2.5px" d="M156.876 238.21h-56.7v7.29h56.7z"></path><path fill="#C74A4A" stroke="#082630" stroke-width="2.5px" d="M160.114 234.97h-64.8v5.67h64.8zM181.985 271.42H73.445v5.67h108.54zM117.185 259.27h-43.74v5.67h43.74zM181.986 259.27h-43.74v5.67h43.74z"></path><path fill="#082630" fill-rule="evenodd" d="M142.051 271.605h-28.479v5.485h28.479zm-25.007-36.69v3.13h1.166v15.575h-6.378v12.34h2.108v-6.855h4.27v6.855h-6.378v5.486h31.766V253.62h-5.883v-15.575h1.228v-3.13h1.163v-5.485h-24.782v5.485zm10.671-163.844h-.379v-37.79h.709v37.79zc.89 0 1.612 1.88 1.612 4.196h2.368v4.195h-1.32c2.793 5.223 11.037 19.683 17.59 21.422 0 1.168-.005 2.654-5.881 3.525v2.61h-3.43v3.357h-2.236v14.111h5.489v5.485h-5.228v5.485h-1.588c3.718 5.815 8.648 12.228 12.874 13.35 0 1.168-.005 2.654-5.881 3.525v2.609h-3.43v3.357h-2.236v14.111h5.489v5.486h-5.228v5.485h-.36c3.533 5.249 7.87 10.475 11.646 11.477 0 1.168-.005 2.654-5.881 3.525v2.609h-3.43v3.358h-2.236v14.111h5.489v5.485h-2.553v5.485h-23.278v-5.485h-2.649v-5.485h5.585v-14.111h-2.43v-3.358h-3.237v-2.609c-5.875-.871-5.88-2.357-5.88-3.525 3.775-1.002 8.113-6.228 11.646-11.477h-.361v-5.485h-5.323v-5.486h5.585v-14.111h-2.43v-3.357h-3.237v-2.609c-5.875-.871-5.88-2.357-5.88-3.525 4.226-1.122 9.156-7.535 12.874-13.35h-1.589v-5.485h-5.323v-5.485h5.585v-14.111h-2.43v-3.357h-3.237v-2.61c-5.875-.871-5.88-2.357-5.88-3.525 6.552-1.739 14.797-16.199 17.589-21.422h-1.319v-4.195h2.367c0-2.316.723-4.196 1.613-4.196" clip-rule="evenodd" opacity="0.3"></path></svg>