<svg xmlns:xlink="http://www.w3.org/1999/xlink" xmlns="http://www.w3.org/2000/svg" viewBox="0 0 21 21" class="bp-no-svg-anim h-20 w-20" width="21"  height="21" ><path fill="#8A8A8A" d="M3.537 15.667h9.268c.464 0 .843-.38.843-.843a.845.845 0 0 0-.843-.842H3.537a.845.845 0 0 0-.843.842c0 .464.38.843.843.843m0-4.213h6.74c.464 0 .843-.38.843-.843a.845.845 0 0 0-.843-.842h-6.74a.845.845 0 0 0-.843.842c0 .464.38.843.843.843m-.843-5.056c0 .464.38.843.843.843h9.268c.464 0 .843-.38.843-.843a.845.845 0 0 0-.843-.842H3.537a.845.845 0 0 0-.843.842m14.577 6.64-2.427-2.427 2.427-2.426a.839.839 0 1 0-1.188-1.189l-3.025 3.025a.84.84 0 0 0 0 1.188l3.025 3.025a.84.84 0 0 0 1.188 0 .857.857 0 0 0 0-1.196"></path></svg>