<svg xmlns:xlink="http://www.w3.org/1999/xlink" xmlns="http://www.w3.org/2000/svg" viewBox="0 0 22 23" class="bp-no-svg-anim h-20 w-20" width="22"  height="23" ><path fill="#8A8A8A" d="M15.701 6.438a.9.9 0 0 0-1.273 0l-5.092 5.091 1.273 1.273 5.092-5.1a.905.905 0 0 0 0-1.264m3.828-.01-8.92 8.92-3.141-3.133a.899.899 0 1 0-1.273 1.273l3.773 3.774a.9.9 0 0 0 1.273 0l9.56-9.552a.9.9 0 0 0 0-1.272h-.008a.88.88 0 0 0-1.264-.01m-18.435 7.07 3.774 3.773a.9.9 0 0 0 1.273 0l.632-.632-4.406-4.424a.9.9 0 0 0-1.273 0 .91.91 0 0 0 0 1.282"></path></svg>