<svg xmlns:xlink="http://www.w3.org/1999/xlink" xmlns="http://www.w3.org/2000/svg" fill="none" viewBox="0 0 23 23" class="bp-no-svg-anim h-20 w-20" width="23"  height="23" ><path fill="#8A8A8A" d="M16.178 4.867a16 16 0 0 0-2.166-2.573c-.316-.307-.849-.018-.759.415.172.849.352 1.968.352 2.97 0 1.86-1.218 3.368-3.078 3.368-1.39 0-2.528-.84-3.024-2.04a2.3 2.3 0 0 1-.18-.488c-.1-.38-.597-.497-.813-.163-.163.244-.316.488-.46.75a12.43 12.43 0 0 0-1.689 6.283 7.22 7.22 0 0 0 7.222 7.222 7.22 7.22 0 0 0 7.222-7.222c0-3.15-.974-6.076-2.627-8.522m-4.857 13.036c-1.606 0-2.906-1.264-2.906-2.835 0-1.463.947-2.492 2.536-2.817 1.327-.27 2.69-.84 3.639-1.733.252-.235.668-.126.74.208.207.92.316 1.877.316 2.843a4.32 4.32 0 0 1-4.324 4.334"></path></svg>