<svg xmlns:xlink="http://www.w3.org/1999/xlink" xmlns="http://www.w3.org/2000/svg" viewBox="0 0 22 21" class="bp-no-svg-anim h-20 w-20" width="22"  height="21" ><path fill="#F0F0F0" d="M6.226 8.252h.168c.649 0 1.18.53 1.18 1.18v5.898c0 .648-.531 1.18-1.18 1.18h-.168c-.65 0-1.18-.532-1.18-1.18V9.43c0-.648.53-1.18 1.18-1.18m4.718-3.54c.649 0 1.18.532 1.18 1.18v9.438c0 .648-.531 1.18-1.18 1.18s-1.18-.532-1.18-1.18V5.893c0-.65.531-1.18 1.18-1.18m4.719 6.742c.648 0 1.18.53 1.18 1.18v2.696c0 .648-.532 1.18-1.18 1.18-.65 0-1.18-.532-1.18-1.18v-2.697c0-.648.53-1.18 1.18-1.18"></path></svg>