<svg xmlns:xlink="http://www.w3.org/1999/xlink" xmlns="http://www.w3.org/2000/svg" viewBox="0 0 21 21" class="bp-no-svg-anim h-20 w-20" width="21"  height="21" ><path fill="#8A8A8A" d="M18.194 3.87H3.027a1.69 1.69 0 0 0-1.685 1.686v10.953a1.69 1.69 0 0 0 1.685 1.685h15.167a1.69 1.69 0 0 0 1.685-1.685V5.556a1.69 1.69 0 0 0-1.685-1.686m0 11.797c0 .463-.379.842-.842.842H10.61V5.556h6.74c.464 0 .843.379.843.842zM16.72 8.505h-4.635a.637.637 0 0 0-.632.632c0 .345.287.632.632.632h4.635a.636.636 0 0 0 .632-.632.636.636 0 0 0-.632-.632m0 2.106h-4.635a.637.637 0 0 0-.632.632c0 .345.287.632.632.632h4.635a.637.637 0 0 0 .632-.632.636.636 0 0 0-.632-.632m0 2.107h-4.635a.637.637 0 0 0-.632.632c0 .345.287.632.632.632h4.635a.637.637 0 0 0 .632-.632.636.636 0 0 0-.632-.632"></path></svg>