<svg xmlns:xlink="http://www.w3.org/1999/xlink" xmlns="http://www.w3.org/2000/svg" fill="none" viewBox="0 0 92 126" role="img" aria-label="Vocabulary" class="rounded-normal border-2 border-srs-beginner" width="96"  height="131" ><g clip-path="url(#card-vocab_svg__a)" fill="none"><path fill="#D9D9D9" d="M32 33h22v42H32z"></path><g clip-path="url(#card-vocab_svg__b)" fill="none"><path fill="#153456" d="M0 0h92v126H0z"></path><g opacity="0.1" fill="none"><rect width="31.159" height="13.6" x="113.729" y="68.144" fill="#FCFCFC" rx="1.218" transform="rotate(-180 113.729 68.144)"></rect><rect width="31.159" height="13.6" x="79.222" y="68.144" fill="#FCFCFC" rx="1.218" transform="rotate(-180 79.222 68.144)"></rect><rect width="31.159" height="13.6" x="10.205" y="68.144" fill="#FCFCFC" rx="1.218" transform="rotate(-180 10.205 68.144)"></rect><rect width="31.159" height="13.6" x="113.729" y="34.448" fill="#FCFCFC" rx="1.218" transform="rotate(-180 113.729 34.448)"></rect><rect width="31.159" height="13.6" x="79.222" y="34.448" fill="#FCFCFC" opacity="0.4" rx="1.218" transform="rotate(-180 79.222 34.448)"></rect><rect width="31.159" height="13.6" x="44.713" y="34.448" fill="#FCFCFC" rx="1.218" transform="rotate(-180 44.713 34.448)"></rect><rect width="31.159" height="13.6" x="10.205" y="34.448" fill="#FCFCFC" opacity="0.4" rx="1.218" transform="rotate(-180 10.205 34.448)"></rect><rect width="31.159" height="13.6" x="96.476" y="17.601" fill="#FCFCFC" opacity="0.4" rx="1.218" transform="rotate(-180 96.476 17.6)"></rect><rect width="31.159" height="13.6" x="61.967" y="17.601" fill="#FCFCFC" rx="1.218" transform="rotate(-180 61.967 17.6)"></rect></g><path fill="#F0F0F0" d="M40.933 72.656h9.826l.17-.748h-9.724zm20.74 3.264v3.23H30.427v-3.23h19.618l.17-.714H39.981l-.204.544-4.828-.408c.884-1.972 2.006-4.998 2.72-7.446l4.658.68-.238.782h9.758l.782-.17 3.604.51a72 72 0 0 1-1.258 6.222zm-.408 9.316h-4.42v-2.618H34.95v2.618h-4.182V79.83h30.498zM39.913 89.01h3.536v-.68h-3.536zm0-3.4v.68h3.536v-.68zm11.628.68v-.68h-3.094v.68zm0 2.72v-.68h-3.094v.68zm9.554 6.222h-7.684c2.516.714 5.61 1.156 8.738 1.326-.85.85-1.972 2.482-2.55 3.57-4.182-.544-8.16-1.768-11.152-3.672v3.774H43.45v-3.604c-3.06 1.7-7.072 2.89-11.016 3.434-.544-.952-1.632-2.482-2.482-3.298 3.026-.272 6.12-.782 8.67-1.53h-7.684v-3.23H43.45v-.68h-7.99v-8.024h20.774v8.024h-7.786v.68h12.648zM41.546 30.916v3.672H31.72v-3.672zm1.19 4.794v3.842H29.85V35.71zm-1.258 4.998v3.672h-9.962v-3.672zm-9.962 8.5v-3.672h9.962v3.672zm6.086 5.066h-2.108v2.89h2.108zm4.182-3.842v10.574h-6.29v1.224H31.38V50.432zm13.464 3.094h-5.814v3.162h5.814zM44.81 62.23V49.14h15.266v12.954h-4.828v-1.02h-5.814v1.156zm9.894-21.352H51.61c-.17.918-.306 1.802-.476 2.618h3.57zm4.726 2.618h2.856v4.284H42.362v-4.284h4.012c.17-.816.34-1.7.476-2.618h-2.584V36.73h3.23l.238-1.802h-4.012v-4.182h17.306v4.182h-8.5l-.272 1.802h7.174z"></path></g></g></svg>